<svg width="164" height="259" viewBox="0 0 164 259" fill="none" xmlns="http://www.w3.org/2000/svg">
<path d="M69.86 233.47C69.86 233.47 40.86 241.78 36.81 243.22C33.13 244.52 23.15 248.02 15.66 246.93C14.937 246.826 14.2219 246.672 13.52 246.47C5.93001 244.21 2.52001 242.1 1.52001 237.33C0.52001 232.56 4.30001 229.04 7.94001 226.79C11.58 224.54 31.32 222.19 31.32 222.19L36.09 223.59L69.86 233.47Z" fill="white"/>
<path d="M15.66 246.93C14.937 246.826 14.2219 246.672 13.52 246.47C5.93001 244.21 2.52001 242.1 1.52001 237.33C0.52001 232.56 4.30001 229.04 7.94001 226.79C11.58 224.54 31.32 222.19 31.32 222.19L36.09 223.59C31.77 225.59 15.69 226.68 12.18 228.7C8.67 230.72 6.98001 234.52 9.05001 239.7C10.16 242.4 13.12 245.05 15.66 246.93Z" fill="white"/>
<path d="M65.5 234.65C65.5 234.65 43.72 240.29 35.08 243.9C26.44 247.51 9.97001 249.09 4.08001 241.65C-1.80999 234.21 3.40001 227.79 9.27001 226.36C15.14 224.93 27.01 222.68 33.49 223.59" stroke="#263238" stroke-width="1.10311" stroke-linecap="round" stroke-linejoin="round"/>
<path d="M16.09 246.54C16.09 246.54 5.01 240.46 8.69 231.94C11.41 225.66 26.19 227.02 33.51 223.59" stroke="#263238" stroke-width="1.10311" stroke-linecap="round" stroke-linejoin="round"/>
<path d="M158.19 248.28C157.89 251.28 156.84 254.09 153.84 255.86C151.84 257.04 149 257.74 144.93 257.7C134.76 257.57 115.64 250.3 115.64 250.3L97.74 240.4L107.05 225.67L109.6 221.67L116.18 223.15C116.18 223.15 121.63 226.24 127.11 228.7C132.59 231.16 145.9 231.7 150.59 235.47C155.28 239.24 158.7 243.34 158.19 248.28Z" fill="white"/>
<path d="M158.19 248.28C157.89 251.28 156.84 254.09 153.84 255.86C154.704 252.911 154.528 249.754 153.34 246.92C151.34 242.43 144.83 238.47 136.27 237.81C127.71 237.15 121.16 233.15 117.73 231.36C115.05 229.97 109.4 226.93 107.05 225.67L109.6 221.67L116.18 223.15C116.18 223.15 121.63 226.24 127.11 228.7C132.59 231.16 145.9 231.7 150.59 235.47C155.28 239.24 158.7 243.34 158.19 248.28Z" fill="white"/>
<path d="M101.71 243.18C114.595 250.67 128.835 255.533 143.61 257.49C146.87 257.88 150.66 257.94 152.84 255.49C153.42 254.782 153.852 253.965 154.109 253.087C154.367 252.21 154.446 251.289 154.34 250.38C153.95 245.78 150.08 242.14 145.84 240.31C141.6 238.48 136.93 238.06 132.42 237.05C127.935 236.039 123.599 234.452 119.52 232.33C116.28 230.64 113.15 228.59 109.58 227.83C106.01 227.07 101.76 227.99 99.85 231.11" stroke="#263238" stroke-width="1.10311" stroke-linecap="round" stroke-linejoin="round"/>
<path d="M151.64 256.74C153.316 255.938 154.78 254.755 155.918 253.286C157.055 251.817 157.833 250.103 158.19 248.28C158.84 243.95 156.37 239.59 152.9 236.93C149.43 234.27 145.08 233.01 140.79 232.12C136.5 231.23 132.11 230.63 128 229C121.73 226.54 115.54 221.7 109 223.43" stroke="#263238" stroke-width="1.10311" stroke-linecap="round" stroke-linejoin="round"/>
<path d="M121.91 88.26L91.62 76.74L91.24 76.59C91.24 76.59 91.35 75.79 91.44 74.59C91.63 72.17 91.73 68.23 90.59 66.9C88.9 64.9 84.12 66.58 79.45 64.44C74.78 62.3 66.15 66.13 66.15 66.13C66.15 66.13 59.91 64.98 57.15 69.48C55.75 73.11 56.23 78.48 56.23 78.48L55.66 78.68C52.05 80.03 32.41 87.42 28.26 90.39C23.67 93.64 18.59 127.01 16.96 136.81C15.33 146.61 12.43 155.44 13.9 158.81C15.37 162.18 36.47 178.43 48.61 182.62C60.75 186.81 103.8 185.62 103.8 185.62C103.8 185.62 104.5 185.43 105.75 185.03C113.03 182.69 138.86 173.03 152.57 150.35C152.59 150.39 139.31 106.86 121.91 88.26ZM40.07 144.39C37.84 145.97 39.07 152.09 39.07 152.09L35.28 148.75L44.8 125.34L48.86 143.34C48.86 143.34 42.3 142.82 40.07 144.39V144.39ZM116.23 159.26C115.18 159.8 119.23 148.55 117.31 146C115.39 143.45 109.6 143.69 109.6 143.69L110.09 140.62L113.52 123.02L114.66 121.67C114.66 121.67 126.44 141.86 128.55 148.98C128.55 149 115.71 159.26 116.23 159.26Z" fill="white"/>
<path d="M64.72 15.25L49.08 31.85C49.08 31.85 46.93 33.76 47.78 38.57C48.63 43.38 50.63 47.57 52.14 47.85C53.3354 48.0593 54.5465 48.1663 55.76 48.17C55.76 48.17 59.11 55.43 61.49 58.28C61.49 58.28 62.31 69.49 61.87 72.6C61.87 72.6 67.49 77.51 72.78 78.13C78.07 78.75 86.24 70.65 86.24 70.65L88.24 60.73C88.24 60.73 93.04 53.45 93.36 51.51C93.68 49.57 95.88 50.07 96.96 49.11C98.04 48.15 100.53 43.88 100.96 39.84C101.39 35.8 101.4 31.16 96.71 32.52C92.64 31.43 95.19 22.83 95.19 22.83L88.04 16.53L64.72 15.25Z" fill="white"/>
<path opacity="0.5" d="M91.62 76.74C91.3841 77.358 91.1137 77.9623 90.81 78.55C88.23 83.41 76.99 92.68 76.99 92.68L73.59 82.23L71.73 92.68C67.98 91.04 56.54 81.13 56.54 81.13C56.54 81.13 56.15 80.2 55.68 78.75L56.25 78.55C56.25 78.55 55.77 73.14 57.17 69.55C59.91 65.05 66.17 66.2 66.17 66.2C66.17 66.2 74.8 62.37 79.47 64.51C84.14 66.65 88.92 64.99 90.61 66.97C92.3 68.95 91.26 76.63 91.26 76.63L91.62 76.74Z" fill="white"/>
<path opacity="0.2" d="M121.91 88.2601L91.62 76.7401L91.24 76.5901C91.24 76.5901 91.35 75.7901 91.44 74.5901L90.81 78.5201L86.33 84.6001C91.119 86.3634 95.7945 88.4206 100.33 90.7601C102.501 91.9231 104.273 93.7122 105.414 95.895C106.555 98.0778 107.014 100.553 106.73 103L101.15 150.75L98.86 177.86L105.77 185.03C113.05 182.69 138.88 173.03 152.59 150.35C152.59 150.39 139.31 106.86 121.91 88.2601ZM116.23 159.26C115.18 159.8 119.23 148.55 117.31 146C115.39 143.45 109.6 143.69 109.6 143.69L110.09 140.62L113.52 123.02L114.66 121.67C114.66 121.67 126.44 141.86 128.55 148.98C128.55 149 115.71 159.26 116.23 159.26Z" fill="black"/>
<path opacity="0.2" d="M50.87 146L46.16 130.26C46.16 130.26 37.71 101.45 31.92 94.3501L33.44 114.61C33.44 114.61 28.44 138.81 23.87 146C19.3 153.19 18.28 155 23.87 155C29.46 155 43.07 165.84 43.07 165.84L42.02 156.84L50.87 146ZM39 152.09L35.21 148.75L44.73 125.34L48.79 143.34C48.79 143.34 42.27 142.85 40.04 144.42C37.81 145.99 39 152.09 39 152.09Z" fill="black"/>
<path d="M61.49 58.28C61.49 58.28 62.35 66.77 61.49 70.65" stroke="#263238" stroke-width="1.10311" stroke-linecap="round" stroke-linejoin="round"/>
<path d="M87.11 69.51C87.1193 66.7801 87.4346 64.0597 88.05 61.4" stroke="#263238" stroke-width="1.10311" stroke-linecap="round" stroke-linejoin="round"/>
<path d="M89.38 21.5801C89.38 21.5801 94.52 28.0301 94.25 32.9101C93.98 37.7901 93.6 43.5701 93.73 49.2301C93.86 54.8901 84.64 66.7501 79.9 67.8001C75.16 68.8501 71.08 69.1201 68.05 66.0901C65.02 63.0601 61.99 58.8501 58.05 53.4501C54.11 48.0501 55.05 36.2001 55.05 36.2001" stroke="#263238" stroke-width="1.10311" stroke-linecap="round" stroke-linejoin="round"/>
<path d="M77 40.7101C76.6869 42.4821 76.5529 44.2812 76.6 46.0801C76.4969 47.5962 76.9682 49.0955 77.92 50.2801C78.49 50.8601 79.31 51.3301 79.42 52.1301C79.4172 52.4902 79.3173 52.8429 79.1307 53.1509C78.9441 53.4589 78.6779 53.7108 78.36 53.8801C77.7187 54.2036 77.1005 54.5711 76.51 54.9801" stroke="#263238" stroke-width="1.10311" stroke-linecap="round" stroke-linejoin="round"/>
<path d="M68.87 55.6001C68.87 55.6001 69.46 59.4301 74.59 60.2301" stroke="#263238" stroke-width="1.10311" stroke-linecap="round" stroke-linejoin="round"/>
<path d="M69.4 43.63C69.4 44.74 68.92 45.63 68.33 45.63C67.74 45.63 67.26 44.74 67.26 43.63C67.26 42.52 67.74 41.63 68.33 41.63C68.92 41.63 69.4 42.53 69.4 43.63Z" fill="#263238"/>
<path d="M84.71 44.11C84.71 45.22 84.23 46.11 83.64 46.11C83.05 46.11 82.57 45.21 82.57 44.11C82.57 43.01 83.05 42.11 83.64 42.11C84.23 42.11 84.71 43 84.71 44.11Z" fill="#263238"/>
<path d="M81.62 39.26C81.62 39.26 86.62 34.26 90.81 39.84" stroke="#263238" stroke-width="2.20621" stroke-linecap="round" stroke-linejoin="round"/>
<path d="M71.09 39.3601C71.09 39.3601 67.93 35.8201 62.95 39.3601" stroke="#263238" stroke-width="2.20621" stroke-linecap="round" stroke-linejoin="round"/>
<path d="M61.87 63.0001C61.87 63.0001 64.92 71.4001 71.73 73.7901C78.54 76.1801 87.58 63.7901 87.58 63.7901L87.11 62.1801C87.11 62.1801 81.18 69.8801 74.59 68.5701C68 67.2601 61.49 58.3201 61.49 58.3201L61.87 63.0001Z" fill="#263238"/>
<path d="M55.76 47.85C55.76 47.85 51.7 49.28 50.62 46.12C49.54 42.96 45.84 34.6301 49.08 31.8501C52.32 29.0701 54.92 35.52 54.92 35.52" stroke="#263238" stroke-width="1.10311" stroke-linecap="round" stroke-linejoin="round"/>
<path d="M93.72 49.57C93.72 49.57 97.49 50.33 98.57 47.17C99.65 44.01 103.35 35.68 100.11 32.9C96.87 30.12 94.27 36.57 94.27 36.57" stroke="#263238" stroke-width="1.10311" stroke-linecap="round" stroke-linejoin="round"/>
<path d="M54.92 43.63C56.3304 43.4077 57.6032 42.6568 58.48 41.53C59.0155 40.541 59.355 39.4578 59.48 38.34C59.8513 36.2134 60.0386 34.0588 60.04 31.9C59.996 31.0567 60.0734 30.2114 60.27 29.39C60.5702 28.5635 61.0326 27.8054 61.63 27.16C63.04 25.5 64.75 24.1 66.1 22.38C66.8237 21.5684 67.3742 20.6177 67.7181 19.5861C68.062 18.5545 68.1919 17.4636 68.1 16.38C71.1937 18.9308 74.8087 20.7729 78.6908 21.7766C82.5728 22.7804 86.6276 22.9215 90.57 22.19C97.72 20.79 104.57 14.52 103.74 6.64004C103.583 5.31886 103.017 4.07993 102.12 3.09711C101.223 2.11429 100.041 1.43691 98.74 1.16004C95.21 0.28004 92.04 2.16003 88.84 3.37003C83.01 5.57003 77.3 1.79004 71.41 1.16004C66.41 0.61004 60.18 1.24004 57.56 6.25004C57.56 6.25004 48.56 7.31004 44.56 14.75C40.56 22.19 48.13 32.48 48.13 32.48C48.13 32.48 51.13 28.8 55.06 36.24L54.92 43.63Z" fill="#263238"/>
<path d="M90 19.68C90 19.68 87.66 31.88 93.77 37.79C93.77 37.79 95.11 34.12 96.46 33.22C97.4334 31.0549 97.8456 28.6794 97.6586 26.313C97.4716 23.9465 96.6914 21.6653 95.39 19.68C90.87 12.58 90 19.68 90 19.68Z" fill="#263238"/>
<path opacity="0.2" d="M101.14 5.80005C100.603 7.46468 99.694 8.98486 98.4809 10.2447C97.2678 11.5046 95.7832 12.4709 94.14 13.0701C85.66 16.5301 77.43 12.7 68.93 11.95C62 11.33 54.35 17.5901 53.86 24.7101" stroke="white" stroke-width="1.10311" stroke-linecap="round" stroke-linejoin="round"/>
<path opacity="0.2" d="M48.63 22.83C48.7339 20.0203 49.6354 17.2983 51.2291 14.982C52.8228 12.6658 55.043 10.8511 57.63 9.75" stroke="white" stroke-width="1.10311" stroke-linecap="round" stroke-linejoin="round"/>
<path d="M59.53 69.51C63.2592 73.3964 67.7585 76.4617 72.74 78.51C72.74 78.51 82.89 75.56 88.05 68.51" stroke="#263238" stroke-width="1.10311" stroke-linecap="round" stroke-linejoin="round"/>
<path d="M69.9027 51.7725C74.4106 49.7048 76.3888 44.3742 74.3211 39.8663C72.2534 35.3584 66.9228 33.3802 62.4149 35.4479C57.907 37.5156 55.9288 42.8462 57.9965 47.3541C60.0642 51.862 65.3948 53.8402 69.9027 51.7725Z" stroke="#263238" stroke-width="1.10311" stroke-linecap="round" stroke-linejoin="round"/>
<path d="M87.3038 52.563C92.2264 51.9586 95.7269 47.4781 95.1225 42.5556C94.5181 37.633 90.0376 34.1325 85.115 34.7369C80.1925 35.3413 76.6919 39.8218 77.2964 44.7444C77.9008 49.6669 82.3813 53.1674 87.3038 52.563Z" stroke="#263238" stroke-width="1.10311" stroke-linecap="round" stroke-linejoin="round"/>
<path d="M61.49 66.16C60.5802 66.3989 59.7279 66.8186 58.9839 67.3942C58.2399 67.9697 57.6196 68.6894 57.16 69.51C55.57 72.31 56.53 81.12 56.53 81.12C56.53 81.12 64.74 89.24 71.73 92.67L73.79 81.08L76.99 92.67C76.99 92.67 87.81 85.02 90.81 78.55C90.81 78.55 91.81 71 90.81 68.55C90.5827 67.8695 90.15 67.2762 89.5715 66.8518C88.9931 66.4274 88.2973 66.1927 87.58 66.18" stroke="#263238" stroke-width="1.10311" stroke-linecap="round" stroke-linejoin="round"/>
<path d="M48.63 143.7C48.63 143.7 45.42 122.2 41.15 113.43" stroke="#263238" stroke-width="1.10311" stroke-linecap="round" stroke-linejoin="round"/>
<path d="M31.92 94.3501C34.4061 97.8834 36.6256 101.597 38.56 105.46" stroke="#263238" stroke-width="1.10311" stroke-linecap="round" stroke-linejoin="round"/>
<path d="M116.23 110.4C117.092 106.805 118.273 103.295 119.76 99.91" stroke="#263238" stroke-width="1.10311" stroke-linecap="round" stroke-linejoin="round"/>
<path d="M109.6 143.7C109.6 143.7 111.91 128.96 114.67 116.82" stroke="#263238" stroke-width="1.10311" stroke-linecap="round" stroke-linejoin="round"/>
<path d="M113.52 123C115.753 120.04 118.892 117.89 122.46 116.88" stroke="#263238" stroke-width="1.10311" stroke-linecap="round" stroke-linejoin="round"/>
<path d="M91.25 76.5901C91.25 76.5901 109.88 84.0401 121.91 88.2701C121.91 88.2701 136.71 102.18 152.58 150.39C152.58 150.39 138.04 174.85 110.38 182.69" stroke="#263238" stroke-width="1.10311" stroke-linecap="round" stroke-linejoin="round"/>
<path d="M115.18 160.13L128.55 149C128.55 149 135.62 143.63 142.97 147.3" stroke="#263238" stroke-width="1.10311" stroke-linecap="round" stroke-linejoin="round"/>
<path d="M114.67 121.67C114.67 121.67 125.72 138 128.55 149" stroke="#263238" stroke-width="1.10311" stroke-linecap="round" stroke-linejoin="round"/>
<path d="M39.15 152.71L35.24 149C35.24 149 29.44 148 22.86 152.39" stroke="#263238" stroke-width="1.10311" stroke-linecap="round" stroke-linejoin="round"/>
<path d="M35.24 149C35.24 149 40.1 133 44.89 124.81" stroke="#263238" stroke-width="1.10311" stroke-linecap="round" stroke-linejoin="round"/>
<path d="M56.25 78.55C56.25 78.55 29.44 88.61 26.81 91.55C24.18 94.49 14.19 150.74 13.92 157.18C13.69 162.94 34.57 175.87 44.92 181.32" stroke="#263238" stroke-width="1.10311" stroke-linecap="round" stroke-linejoin="round"/>
<path d="M76.3 97.5601C76.3 97.9101 76.1962 98.2523 76.0017 98.5434C75.8072 98.8345 75.5308 99.0614 75.2073 99.1953C74.8839 99.3293 74.528 99.3643 74.1847 99.296C73.8414 99.2278 73.526 99.0592 73.2784 98.8116C73.0309 98.5641 72.8623 98.2487 72.794 97.9054C72.7257 97.562 72.7608 97.2061 72.8948 96.8827C73.0287 96.5593 73.2556 96.2828 73.5466 96.0883C73.8377 95.8939 74.1799 95.7901 74.53 95.7901C74.7628 95.7887 74.9936 95.8336 75.2089 95.9221C75.4243 96.0106 75.6199 96.1409 75.7846 96.3055C75.9492 96.4701 76.0795 96.6658 76.168 96.8811C76.2565 97.0965 76.3013 97.3272 76.3 97.5601V97.5601Z" fill="#263238"/>
<path d="M107.32 191.78H46.32C45.9407 191.78 45.577 191.629 45.3088 191.361C45.0407 191.093 44.89 190.729 44.89 190.35C44.89 189.971 45.0407 189.607 45.3088 189.339C45.577 189.071 45.9407 188.92 46.32 188.92H107.32C107.699 188.92 108.063 189.071 108.331 189.339C108.599 189.607 108.75 189.971 108.75 190.35C108.75 190.729 108.599 191.093 108.331 191.361C108.063 191.629 107.699 191.78 107.32 191.78Z" fill="#263238"/>
<path d="M109.46 187L117.63 148.6C117.757 148.005 117.749 147.388 117.607 146.797C117.464 146.205 117.191 145.652 116.808 145.179C116.424 144.707 115.94 144.326 115.39 144.065C114.84 143.803 114.239 143.669 113.63 143.67H42.33C41.7264 143.67 41.1304 143.804 40.5849 144.062C40.0394 144.321 39.558 144.697 39.1754 145.164C38.7927 145.63 38.5185 146.176 38.3723 146.762C38.2261 147.347 38.2116 147.958 38.33 148.55L45.66 185.67C45.8397 186.582 46.3252 187.405 47.0362 188.003C47.7472 188.601 48.641 188.939 49.57 188.96L105.36 190.24C106.314 190.261 107.245 189.949 107.993 189.358C108.741 188.766 109.26 187.933 109.46 187V187Z" fill="white" stroke="#263238" stroke-width="1.10311" stroke-linecap="round" stroke-linejoin="round"/>
<path d="M83.44 165.83C83.438 166.955 83.1026 168.054 82.4762 168.988C81.8498 169.923 80.9604 170.651 79.9206 171.08C78.8807 171.509 77.7369 171.62 76.6338 171.399C75.5307 171.179 74.5178 170.636 73.723 169.84C72.9283 169.044 72.3873 168.03 72.1686 166.926C71.9499 165.823 72.0631 164.679 72.4941 163.64C72.925 162.601 73.6543 161.713 74.5898 161.088C75.5253 160.463 76.625 160.13 77.75 160.13C78.4981 160.13 79.2388 160.278 79.9298 160.564C80.6208 160.851 81.2485 161.271 81.777 161.8C82.3055 162.33 82.7244 162.958 83.0097 163.649C83.2951 164.341 83.4413 165.082 83.44 165.83Z" fill="#263238"/>
<path d="M94.63 147.34H103.1" stroke="#263238" stroke-width="1.10311" stroke-linecap="round" stroke-linejoin="round"/>
<path d="M54.18 147.34H86.33" stroke="#263238" stroke-width="1.10311" stroke-linecap="round" stroke-linejoin="round"/>
<path d="M109.6 227.77L103.1 244.83C103.1 244.83 86.52 240.65 65.29 236.3C43.08 231.75 19.89 225.86 7.86 204.75C6.4 202.18 5.42 199.14 6.11 196.26C7.84 188.97 17.33 186.99 23.58 186.26C27.5092 185.835 31.4579 185.615 35.41 185.6C37.41 185.6 44.06 184.51 45.67 185.7C48.089 187.465 50.6707 188.995 53.38 190.27C56.93 191.78 108.75 188.92 108.75 188.92C109.652 186.954 110.203 184.846 110.38 182.69C118.53 178.55 137.38 175.05 145.38 176.6C157.91 179.03 165.22 186.34 163.83 194C162.44 201.66 134.76 222.2 109.6 227.77Z" fill="#263238"/>
<path d="M109.6 227.77C109.6 227.77 93.83 223.59 80.95 214.89C68.07 206.19 58.01 196.09 40.06 198.18" stroke="white" stroke-width="1.10311" stroke-linecap="round" stroke-linejoin="round"/>
<path d="M78 212.84C86.14 210.5 92.11 205.23 98.64 200.18C105.528 194.652 112.924 189.791 120.73 185.66" stroke="white" stroke-width="1.10311" stroke-linecap="round" stroke-linejoin="round"/>
<path d="M75.13 45.05H77.52" stroke="#263238" stroke-width="1.10311" stroke-linecap="round" stroke-linejoin="round"/>
</svg>
